#!OML:ASF F:\VICON\USERDATA\INSTALL\Justin_Nancy\Justin_Nancy.ASF
:FULLY-SPECIFIED
:DEGREES
47
root 0.74758 17.7427 -15.6938 5.45803 -3.17436 -1.16842
lowerback 4.75004 -0.0691874 -0.306822
upperback -1.07972 -0.00339097 2.95982
thorax -3.78102 0.0395099 3.23427
lowerneck -15.8385 -4.56824 -10.8408
upperneck 20.1524 -4.94673 6.02621
head 9.40132 -2.4956 3.24261
rclavicle 9.88954e-015 4.77083e-015
rhumerus -33.9039 -8.91677 -78.7279
rradius 33.4411
rwrist 4.50291
rhand -11.891 13.0015
rfingers 7.12502
rthumb 14.1621 -16.4958
lclavicle 9.88954e-015 4.77083e-015
lhumerus -35.0952 12.3108 82.9064
lradius 30.6615
lwrist -4.18597
lhand -21.4162 17.9892
lfingers 7.12502
lthumb 4.97246 47.9109
rfemur -10.8561 5.32526 19.6112
rtibia 21.6681
rfoot -11.1069 -7.60241
rtoes 8.65438
lfemur -12.3816 -3.90695 -16.7848
ltibia 24.478
lfoot -13.5673 9.28125
ltoes -1.02821
48
root 0.747729 17.7381 -15.6948 5.4375 -3.28202 -1.26154
lowerback 4.73343 -0.0176926 -0.192419
upperback -1.03039 0.0705689 2.94935
thorax -3.72457 0.0727336 3.15228
lowerneck -16.0039 -4.55788 -10.7821
upperneck 20.2625 -4.93781 6.0486
head 9.46806 -2.48309 3.24152
rclavicle -9.69075e-015 1.35174e-014
rhumerus -33.9122 -8.97995 -78.7547
rradius 33.56
rwrist 4.38972
rhand -11.7033 12.9821
rfingers 7.12502
rthumb 14.3429 -16.5024
lclavicle -9.69075e-015 1.35174e-014
lhumerus -34.9734 12.2397 82.8957
lradius 30.5887
lwrist -4.03647
lhand -21.5334 17.6387
lfingers 7.12502
lthumb 4.85932 47.563
rfemur -10.8605 5.39604 19.7039
rtibia 21.6588
rfoot -11.0974 -7.55674
rtoes 8.03786
lfemur -12.3682 -3.89199 -16.6826
ltibia 24.5335
lfoot -13.7058 9.33415
ltoes -0.687472
49
root 0.746456 17.7393 -15.6938 5.47345 -3.36328 -1.21511
lowerback 4.63574 -0.00501146 -0.289955
upperback -1.02783 0.0807046 2.96529
thorax -3.6676 0.0796047 3.22255
lowerneck -16.0396 -4.51588 -10.8347
upperneck 20.3647 -4.87 6.06997
head 9.50609 -2.45407 3.26797
rclavicle -4.96962e-015 -9.54166e-015
rhumerus -33.8527 -8.99378 -78.7183
rradius 33.5225
rwrist 4.40548
rhand -11.6218 12.9311
rfingers 7.12502
rthumb 14.4214 -16.5479
lclavicle -4.96962e-015 -9.54166e-015
lhumerus -34.9765 12.362 82.8756
lradius 30.517
lwrist -4.09373
lhand -21.5841 17.0135
lfingers 7.12502
lthumb 4.81032 46.9389
rfemur -10.9235 5.48545 19.6423
rtibia 21.6579
rfoot -11.0574 -7.58667
rtoes 8.16652
lfemur -12.3866 -3.89085 -16.7287
ltibia 24.5586
lfoot -13.8163 9.36208
ltoes -0.724228
50
root 0.742438 17.7434 -15.6927 5.51336 -3.28559 -1.18957
lowerback 4.45506 -0.0208731 -0.329767
upperback -0.999816 0.053401 2.94511
thorax -3.53497 0.0652208 3.2247
lowerneck -15.9035 -4.53737 -10.825
upperneck 20.2972 -4.92177 6.09531
head 9.46251 -2.47607 3.2689
rclavicle 6.01324e-015 2.78299e-014
rhumerus -33.8053 -9.01652 -78.7627
rradius 33.5336
rwrist 4.38659
rhand -11.721 13.071
rfingers 7.12502
rthumb 14.3259 -16.4147
lclavicle 6.01324e-015 2.78299e-014
lhumerus -34.9205 12.3498 82.837
lradius 30.4864
lwrist -4.23516
lhand -21.5712 16.7344
lfingers 7.12502
lthumb 4.82281 46.6595
rfemur -10.9496 5.50078 19.6352
rtibia 21.672
rfoot -11.0703 -7.66603
rtoes 8.25135
lfemur -12.432 -3.86608 -16.725
ltibia 24.5613
lfoot -13.8153 9.25886
ltoes -0.902698
51
root 0.74346 17.742 -15.6906 5.41931 -3.1736 -1.14375
lowerback 4.52009 -0.0189025 -0.314469
upperback -0.951137 0.054933 2.89421
thorax -3.52115 0.0645983 3.163
lowerneck -16.0612 -4.58254 -10.745
upperneck 20.3919 -4.98602 6.07306
head 9.52788 -2.50056 3.23833
rclavicle -1.98785e-015 3.18055e-015
rhumerus -33.7853 -9.18699 -78.7518
rradius 33.5362
rwrist 4.46013
rhand -11.763 13.5997
rfingers 7.12502
rthumb 14.2854 -15.8889
lclavicle -1.98785e-015 3.18055e-015
lhumerus -34.8855 12.3429 82.7915
lradius 30.4915
lwrist -4.5313
lhand -21.4674 16.0589
lfingers 7.12502
lthumb 4.92306 45.9817
rfemur -10.8376 5.35428 19.6089
rtibia 21.7021
rfoot -11.0648 -7.67199
rtoes 8.17221
lfemur -12.348 -3.96316 -16.7728
ltibia 24.5374
lfoot -13.7622 9.21553
ltoes -0.866963
52
root 0.74341 17.7405 -15.6898 5.34965 -3.22824 -1.15368
lowerback 4.62826 0.00720234 -0.296008
upperback -0.967362 0.0920512 2.87604
thorax -3.60103 0.0833313 3.13166
lowerneck -15.9745 -4.56325 -10.742
upperneck 20.3952 -4.98072 6.11826
head 9.51337 -2.49453 3.25565
rclavicle -1.39149e-015 8.74653e-015
rhumerus -33.8462 -9.29482 -78.7457
rradius 33.5111
rwrist 4.54951
rhand -11.8897 13.695
rfingers 7.12502
rthumb 14.1633 -15.8022
lclavicle -1.39149e-015 8.74653e-015
lhumerus -35.0246 12.2338 82.7651
lradius 30.5801
lwrist -4.51604
lhand -21.4478 15.7846
lfingers 7.12502
lthumb 4.94197 45.707
rfemur -10.7987 5.33166 19.6141
rtibia 21.7583
rfoot -11.0698 -7.53429
rtoes 8.6862
lfemur -12.259 -3.95629 -16.7834
ltibia 24.5003
lfoot -13.7222 9.30328
ltoes -1.21558
53
root 0.741897 17.7402 -15.6909 5.42999 -3.29986 -1.11218
lowerback 4.50672 -0.0196106 -0.392361
upperback -1.02399 0.0512564 2.90321
thorax -3.589 0.0657362 3.21719
lowerneck -15.6868 -4.48376 -10.8444
upperneck 20.3148 -4.88905 6.18595
head 9.42793 -2.45664 3.31133
rclavicle 1.02871e-014 1.51076e-014
rhumerus -33.853 -9.20517 -78.7475
rradius 33.4216
rwrist 4.67367
rhand -12.0106 13.4956
rfingers 7.12502
rthumb 14.0468 -16.0097
lclavicle 1.02871e-014 1.51076e-014
lhumerus -35.1542 12.4455 82.6782
lradius 30.55
lwrist -4.55462
lhand -21.3733 16.2903
lfingers 7.12502
lthumb 5.01389 46.211
rfemur -10.9627 5.31532 19.5548
rtibia 21.8666
rfoot -11.1202 -7.47612
rtoes 8.21961
lfemur -12.331 -3.88507 -16.8359
ltibia 24.4362
lfoot -13.6659 9.35926
ltoes -1.83541
54
root 0.741631 17.7384 -15.6883 5.44286 -3.26751 -1.003
lowerback 4.39636 -0.0590316 -0.528266
upperback -1.03784 -0.00964655 2.91932
thorax -3.53757 0.0381143 3.31468
lowerneck -15.5386 -4.42857 -10.9148
upperneck 20.2574 -4.81105 6.19566
head 9.3754 -2.4266 3.3379
rclavicle 3.52843e-015 2.38542e-014
rhumerus -33.8921 -9.06942 -78.713
rradius 33.4473
rwrist 4.71951
rhand -12.0649 13.3372
rfingers 7.12502
rthumb 13.9944 -16.1717
lclavicle 3.52843e-015 2.38542e-014
lhumerus -35.24 12.6092 82.6544
lradius 30.5369
lwrist -4.56897
lhand -21.0635 16.6245
lfingers 7.12502
lthumb 5.31303 46.5379
rfemur -11.0002 5.25876 19.4295
rtibia 21.9471
rfoot -11.1776 -7.48716
rtoes 7.68801
lfemur -12.3508 -3.83503 -16.9689
ltibia 24.397
lfoot -13.6018 9.3385
ltoes -2.1618
55
root 0.741269 17.7338 -15.6866 5.36525 -3.24023 -0.887651
lowerback 4.40022 -0.0733717 -0.624145
upperback -1.00415 -0.0362567 2.8809
thorax -3.50318 0.0258155 3.3306
lowerneck -15.5915 -4.42082 -10.9244
upperneck 20.3103 -4.79849 6.21643
head 9.40314 -2.41906 3.34863
rclavicle 5.36719e-015 -1.19271e-014
rhumerus -33.9337 -9.07979 -78.7013
rradius 33.5067
rwrist 4.77233
rhand -12.0321 13.6554
rfingers 7.12502
rthumb 14.0261 -15.8513
lclavicle 5.36719e-015 -1.19271e-014
lhumerus -35.2822 12.5608 82.6665
lradius 30.6286
lwrist -4.31778
lhand -20.7758 17.1582
lfingers 7.12502
lthumb 5.59081 47.0644
rfemur -10.9558 5.17122 19.3071
rtibia 22.04
rfoot -11.2907 -7.4705
rtoes 7.76578
lfemur -12.2332 -3.92685 -17.1007
ltibia 24.3465
lfoot -13.6061 9.38209
ltoes -1.97765
